<mxfile host="Electron" modified="2023-07-24T18:10:29.200Z" agent="Mozilla/5.0 (Windows NT 10.0; Win64; x64) AppleWebKit/537.36 (KHTML, like Gecko) draw.io/21.6.1 Chrome/112.0.5615.204 Electron/24.6.1 Safari/537.36" etag="5-JJji2RR_1mkeZ5kVh0" version="21.6.1" type="device">
  <diagram name="Seite-1" id="eu7ErqjzC7A2WQOPb2rV">
    <mxGraphModel dx="1434" dy="844" grid="1" gridSize="10" guides="1" tooltips="1" connect="1" arrows="1" fold="1" page="1" pageScale="1" pageWidth="827" pageHeight="1169" math="0" shadow="0">
      <root>
        <mxCell id="0" />
        <mxCell id="1" parent="0" />
        <mxCell id="QnKVf4tqU8WRDSAVsLGy-4" value="" style="edgeStyle=orthogonalEdgeStyle;rounded=0;orthogonalLoop=1;jettySize=auto;html=1;" edge="1" parent="1" source="QnKVf4tqU8WRDSAVsLGy-1" target="QnKVf4tqU8WRDSAVsLGy-3">
          <mxGeometry relative="1" as="geometry" />
        </mxCell>
        <mxCell id="QnKVf4tqU8WRDSAVsLGy-1" value="Start" style="strokeWidth=2;html=1;shape=mxgraph.flowchart.start_2;whiteSpace=wrap;" vertex="1" parent="1">
          <mxGeometry x="140" y="55" width="100" height="100" as="geometry" />
        </mxCell>
        <mxCell id="QnKVf4tqU8WRDSAVsLGy-6" value="" style="edgeStyle=orthogonalEdgeStyle;rounded=0;orthogonalLoop=1;jettySize=auto;html=1;" edge="1" parent="1" source="QnKVf4tqU8WRDSAVsLGy-3" target="QnKVf4tqU8WRDSAVsLGy-5">
          <mxGeometry relative="1" as="geometry" />
        </mxCell>
        <mxCell id="QnKVf4tqU8WRDSAVsLGy-3" value="User ruft Seite auf" style="whiteSpace=wrap;html=1;strokeWidth=2;" vertex="1" parent="1">
          <mxGeometry x="280" y="75" width="120" height="60" as="geometry" />
        </mxCell>
        <mxCell id="QnKVf4tqU8WRDSAVsLGy-8" value="" style="edgeStyle=orthogonalEdgeStyle;rounded=0;orthogonalLoop=1;jettySize=auto;html=1;" edge="1" parent="1" source="QnKVf4tqU8WRDSAVsLGy-5" target="QnKVf4tqU8WRDSAVsLGy-7">
          <mxGeometry relative="1" as="geometry" />
        </mxCell>
        <mxCell id="QnKVf4tqU8WRDSAVsLGy-9" value="Nein" style="edgeLabel;html=1;align=center;verticalAlign=middle;resizable=0;points=[];" vertex="1" connectable="0" parent="QnKVf4tqU8WRDSAVsLGy-8">
          <mxGeometry x="0.0133" y="2" relative="1" as="geometry">
            <mxPoint as="offset" />
          </mxGeometry>
        </mxCell>
        <mxCell id="QnKVf4tqU8WRDSAVsLGy-11" value="" style="edgeStyle=orthogonalEdgeStyle;rounded=0;orthogonalLoop=1;jettySize=auto;html=1;" edge="1" parent="1" source="QnKVf4tqU8WRDSAVsLGy-5" target="QnKVf4tqU8WRDSAVsLGy-10">
          <mxGeometry relative="1" as="geometry" />
        </mxCell>
        <mxCell id="QnKVf4tqU8WRDSAVsLGy-12" value="Ja" style="edgeLabel;html=1;align=center;verticalAlign=middle;resizable=0;points=[];" vertex="1" connectable="0" parent="QnKVf4tqU8WRDSAVsLGy-11">
          <mxGeometry x="-0.0095" y="-1" relative="1" as="geometry">
            <mxPoint as="offset" />
          </mxGeometry>
        </mxCell>
        <mxCell id="QnKVf4tqU8WRDSAVsLGy-5" value="User angemeldet?" style="rhombus;whiteSpace=wrap;html=1;strokeWidth=2;" vertex="1" parent="1">
          <mxGeometry x="440" y="50" width="110" height="110" as="geometry" />
        </mxCell>
        <mxCell id="QnKVf4tqU8WRDSAVsLGy-18" value="" style="edgeStyle=orthogonalEdgeStyle;rounded=0;orthogonalLoop=1;jettySize=auto;html=1;" edge="1" parent="1" source="QnKVf4tqU8WRDSAVsLGy-7" target="QnKVf4tqU8WRDSAVsLGy-17">
          <mxGeometry relative="1" as="geometry" />
        </mxCell>
        <mxCell id="QnKVf4tqU8WRDSAVsLGy-7" value="Weiteleitung zur Anmeldeseite (cshtml?)" style="whiteSpace=wrap;html=1;strokeWidth=2;" vertex="1" parent="1">
          <mxGeometry x="625" y="75" width="120" height="60" as="geometry" />
        </mxCell>
        <mxCell id="QnKVf4tqU8WRDSAVsLGy-14" value="" style="edgeStyle=orthogonalEdgeStyle;rounded=0;orthogonalLoop=1;jettySize=auto;html=1;" edge="1" parent="1" source="QnKVf4tqU8WRDSAVsLGy-10" target="QnKVf4tqU8WRDSAVsLGy-13">
          <mxGeometry relative="1" as="geometry" />
        </mxCell>
        <mxCell id="QnKVf4tqU8WRDSAVsLGy-10" value="Weiteleitung zur main vue.js Applikation" style="whiteSpace=wrap;html=1;strokeWidth=2;" vertex="1" parent="1">
          <mxGeometry x="435" y="200" width="120" height="60" as="geometry" />
        </mxCell>
        <mxCell id="QnKVf4tqU8WRDSAVsLGy-16" value="" style="edgeStyle=orthogonalEdgeStyle;rounded=0;orthogonalLoop=1;jettySize=auto;html=1;" edge="1" parent="1" source="QnKVf4tqU8WRDSAVsLGy-13" target="QnKVf4tqU8WRDSAVsLGy-15">
          <mxGeometry relative="1" as="geometry" />
        </mxCell>
        <mxCell id="QnKVf4tqU8WRDSAVsLGy-13" value="Vue.js App wird geserved &lt;br&gt;(ohne Daten)" style="whiteSpace=wrap;html=1;strokeWidth=2;" vertex="1" parent="1">
          <mxGeometry x="435" y="320" width="120" height="60" as="geometry" />
        </mxCell>
        <mxCell id="QnKVf4tqU8WRDSAVsLGy-22" value="" style="edgeStyle=orthogonalEdgeStyle;rounded=0;orthogonalLoop=1;jettySize=auto;html=1;" edge="1" parent="1" source="QnKVf4tqU8WRDSAVsLGy-15" target="QnKVf4tqU8WRDSAVsLGy-21">
          <mxGeometry relative="1" as="geometry" />
        </mxCell>
        <mxCell id="QnKVf4tqU8WRDSAVsLGy-15" value="Vue App ruft von einem Endpunkt eine JSON Stuktur mit den relevanten Todo-Listen ab" style="whiteSpace=wrap;html=1;strokeWidth=2;" vertex="1" parent="1">
          <mxGeometry x="435" y="440" width="120" height="80" as="geometry" />
        </mxCell>
        <mxCell id="QnKVf4tqU8WRDSAVsLGy-19" style="edgeStyle=orthogonalEdgeStyle;rounded=0;orthogonalLoop=1;jettySize=auto;html=1;entryX=1;entryY=0.5;entryDx=0;entryDy=0;" edge="1" parent="1" source="QnKVf4tqU8WRDSAVsLGy-17" target="QnKVf4tqU8WRDSAVsLGy-10">
          <mxGeometry relative="1" as="geometry">
            <Array as="points">
              <mxPoint x="880" y="230" />
            </Array>
          </mxGeometry>
        </mxCell>
        <mxCell id="QnKVf4tqU8WRDSAVsLGy-17" value="Anmeldung/Account anlegen" style="whiteSpace=wrap;html=1;strokeWidth=2;" vertex="1" parent="1">
          <mxGeometry x="825" y="75" width="120" height="60" as="geometry" />
        </mxCell>
        <mxCell id="QnKVf4tqU8WRDSAVsLGy-21" value="Bei Auswahl einer Liste, werden die Listeninformationen von einem Endpunkt abgerufen" style="whiteSpace=wrap;html=1;strokeWidth=2;" vertex="1" parent="1">
          <mxGeometry x="435" y="560" width="120" height="80" as="geometry" />
        </mxCell>
        <mxCell id="QnKVf4tqU8WRDSAVsLGy-23" value="Die App subscribed zu Mosquitto, um Ã¼ber neue Listen informiert zu werden" style="whiteSpace=wrap;html=1;strokeWidth=2;" vertex="1" parent="1">
          <mxGeometry x="555" y="440" width="120" height="80" as="geometry" />
        </mxCell>
      </root>
    </mxGraphModel>
  </diagram>
</mxfile>
